HIERARCHY
ROOT Hips
{
	OFFSET 0.00000 0.00000 0.00000
	CHANNELS 6 Xposition Yposition Zposition Zrotation Yrotation Xrotation 
	JOINT LHipJoint
	{
		OFFSET 0 0 0
		CHANNELS 3 Zrotation Yrotation Xrotation
		JOINT LeftUpLeg
		{
			OFFSET 1.81424 -1.42316 1.18090
			CHANNELS 3 Zrotation Yrotation Xrotation
			JOINT LeftLeg
			{
				OFFSET 2.15837 -5.93008 0.00000
				CHANNELS 3 Zrotation Yrotation Xrotation
				JOINT LeftFoot
				{
					OFFSET 2.51759 -6.91701 0.00000
					CHANNELS 3 Zrotation Yrotation Xrotation
					JOINT LeftToeBase
					{
						OFFSET 0.18318 -0.50327 1.95113
						CHANNELS 3 Zrotation Yrotation Xrotation
						End Site
						{
							OFFSET 0.00000 -0.00000 1.01524
						}
					}
				}
			}
		}
	}
	JOINT RHipJoint
	{
		OFFSET 0 0 0
		CHANNELS 3 Zrotation Yrotation Xrotation
		JOINT RightUpLeg
		{
			OFFSET -1.43917 -1.42316 1.18090
			CHANNELS 3 Zrotation Yrotation Xrotation
			JOINT RightLeg
			{
				OFFSET -2.25237 -6.18833 0.00000
				CHANNELS 3 Zrotation Yrotation Xrotation
				JOINT RightFoot
				{
					OFFSET -2.46496 -6.77243 0.00000
					CHANNELS 3 Zrotation Yrotation Xrotation
					JOINT RightToeBase
					{
						OFFSET -0.26285 -0.72219 1.76148
						CHANNELS 3 Zrotation Yrotation Xrotation
						End Site
						{
							OFFSET -0.00000 -0.00000 0.95109
						}
					}
				}
			}
		}
	}
	JOINT LowerBack
	{
		OFFSET 0 0 0
		CHANNELS 3 Zrotation Yrotation Xrotation
		JOINT Spine
		{
			OFFSET -0.08725 1.93754 -0.28890
			CHANNELS 3 Zrotation Yrotation Xrotation
			JOINT Spine1
			{
				OFFSET 0.01195 1.94849 0.05967
				CHANNELS 3 Zrotation Yrotation Xrotation
				JOINT Neck
				{
					OFFSET 0 0 0
					CHANNELS 3 Zrotation Yrotation Xrotation
					JOINT Neck1
					{
						OFFSET 0.02762 1.60124 0.34160
						CHANNELS 3 Zrotation Yrotation Xrotation
						JOINT Head
						{
							OFFSET -0.04785 1.66713 -0.24070
							CHANNELS 3 Zrotation Yrotation Xrotation
							End Site
							{
								OFFSET -0.02188 1.68591 -0.11959
							}
						}
					}
				}
				JOINT LeftShoulder
				{
					OFFSET 0 0 0
					CHANNELS 3 Zrotation Yrotation Xrotation
					JOINT LeftArm
					{
						OFFSET 2.59610 1.78696 -0.28854
						CHANNELS 3 Zrotation Yrotation Xrotation
						JOINT LeftForeArm
						{
							OFFSET 5.17853 -0.00000 0.00000
							CHANNELS 3 Zrotation Yrotation Xrotation
							JOINT LeftHand
							{
								OFFSET 3.40399 -0.00000 -0.00000
								CHANNELS 3 Zrotation Yrotation Xrotation
								JOINT LeftFingerBase
								{
									OFFSET 0 0 0
									CHANNELS 3 Zrotation Yrotation Xrotation
									JOINT LeftHandIndex1
									{
										OFFSET 0.70896 -0.00000 -0.00000
										CHANNELS 3 Zrotation Yrotation Xrotation
										End Site
										{
											OFFSET 0.57159 -0.00000 -0.00000
										}
									}
								}
								JOINT LThumb
								{
									OFFSET 0 0 0
									CHANNELS 3 Zrotation Yrotation Xrotation
									End Site
									{
										OFFSET 0.58031 -0.00000 0.58031
									}
								}
							}
						}
					}
				}
				JOINT RightShoulder
				{
					OFFSET 0 0 0
					CHANNELS 3 Zrotation Yrotation Xrotation
					JOINT RightArm
					{
						OFFSET -2.87749 1.55486 -0.73085
						CHANNELS 3 Zrotation Yrotation Xrotation
						JOINT RightForeArm
						{
							OFFSET -5.42351 -0.00000 -0.00000
							CHANNELS 3 Zrotation Yrotation Xrotation
							JOINT RightHand
							{
								OFFSET -3.42066 -0.00000 -0.00000
								CHANNELS 3 Zrotation Yrotation Xrotation
								JOINT RightFingerBase
								{
									OFFSET 0 0 0
									CHANNELS 3 Zrotation Yrotation Xrotation
									JOINT RightHandIndex1
									{
										OFFSET -0.74361 -0.00000 -0.00000
										CHANNELS 3 Zrotation Yrotation Xrotation
										End Site
										{
											OFFSET -0.59952 -0.00000 -0.00000
										}
									}
								}
								JOINT RThumb
								{
									OFFSET 0 0 0
									CHANNELS 3 Zrotation Yrotation Xrotation
									End Site
									{
										OFFSET -0.60867 -0.00000 0.60867
									}
								}
							}
						}
					}
				}
			}
		}
	}
}
MOTION
Frames: 10
Frame Time: .0083333
-4.2665 1.9767 -1.5592 0 0 0 0 0 0 -21 0 0 0 0 0 0 0 0 0 0 0 0 0 0 21 0 0 0 0 0 0 0 0 0 0 0 0 0 0 0 0 0 0 0 0 0 0 -16 0 0 21 0 0 11 0 0 0 -8 0 0 0 0 0 0 0 0 0 0 0 0 0 0 0 0 0 0 0 0 8 0 0 0 0 0 0 0 0 0 0 0 0 0 0 0 0 0
-4.2665 1.9767 -1.5592 -87.3349 61.3714 168.3470 0.0000 0.0000 0.0000 6.5472 30.2075 -31.7863 7.8689 16.0220 52.0891 0.3976 3.4977 11.2249 0.8859 5.9999 16.7842 0.0000 0.0000 0.0000 24.5166 17.7461 -22.2875 -31.1725 -16.6954 124.5085 0.0921 -8.5234 3.9432 -1.9394 8.7387 -24.9812 5.0160 -5.6337 15.2749 -2.7513 -6.8397 3.1328 -4.3197 -3.4705 -6.1063 18.4020 15.5237 -11.4289 -23.1647 23.6819 9.7330 -7.1248 10.6827 10.1381 -0.0000 0.0000 0.0000 -1.3048 -4.0176 7.2354 14.0738 -22.8401 -2.8567 -0.0000 -0.0000 4.3635 2.1533 -3.8403 -0.1443 -7.1250 0.0000 -0.0000 -18.3110 26.0291 8.8515 -0.0000 0.0000 0.0000 41.5498 -29.2162 26.0480 -10.6101 17.6882 -1.6555 0.0000 0.0000 25.7815 -0.6739 29.2980 -0.3298 7.1250 -0.0000 -0.0000 17.4151 -1.8138 17.7013
-4.2591 1.9745 -1.5592 -87.4918 61.3453 168.2410 0.0000 0.0000 0.0000 6.4211 30.1050 -31.7885 7.8618 16.0166 52.0633 0.3915 3.5803 11.1342 0.8524 5.8882 16.4604 0.0000 0.0000 0.0000 24.3429 17.7276 -22.3655 -31.2008 -16.6768 124.6068 0.0851 -8.3278 3.9240 -2.0099 8.8867 -25.4415 4.9431 -5.6032 15.2015 -2.7523 -6.8139 3.1549 -4.2931 -3.4549 -6.0315 18.1029 15.4911 -11.5628 -22.9193 23.5867 9.7646 -7.0109 10.6310 10.0733 -0.0000 0.0000 0.0000 -1.4091 -4.1269 6.8254 14.0802 -22.8493 -2.8592 -0.0000 -0.0000 4.7167 2.1851 -3.9210 -0.1495 -7.1250 0.0000 -0.0000 -18.2758 25.9527 8.8673 -0.0000 0.0000 0.0000 41.5382 -29.2415 26.0415 -10.6163 17.6978 -1.6574 0.0000 0.0000 25.7190 -0.6404 29.2839 -0.3132 7.1250 -0.0000 -0.0000 17.4340 -1.8297 17.7174
-4.2640 1.9754 -1.5579 -87.5599 61.3138 168.2450 0.0000 0.0000 0.0000 6.3092 30.2007 -31.8532 7.8360 15.9973 51.9697 0.3955 3.5600 11.1919 0.8693 5.9448 16.6244 0.0000 0.0000 0.0000 24.2663 17.7053 -22.4297 -31.1914 -16.6830 124.5741 0.0820 -8.2745 3.9507 -2.0599 8.9896 -25.7629 4.9100 -5.5834 15.0826 -2.7353 -6.7974 3.1659 -4.2705 -3.4448 -5.9472 17.9465 15.4538 -11.6938 -22.8342 23.5237 9.8335 -6.9663 10.5906 10.0736 0.0000 -0.0000 0.0000 -1.3692 -4.1907 7.0752 14.0408 -22.7930 -2.8439 -0.0000 -0.0000 4.4018 2.2623 -3.9396 -0.1555 -7.1250 0.0000 -0.0000 -18.2169 25.9358 8.8434 0.0000 -0.0000 0.0000 41.5235 -29.2392 25.9242 -10.6051 17.6804 -1.6540 0.0000 0.0000 25.7756 -0.5825 29.3861 -0.2858 7.1250 -0.0000 -0.0000 17.4659 -1.7364 17.7835
-4.2666 1.9757 -1.5566 -87.6762 61.3035 168.1530 0.0000 0.0000 0.0000 6.2339 30.2150 -31.8639 7.8267 15.9903 51.9361 0.4068 3.6366 11.3515 0.8877 6.0056 16.8007 0.0000 0.0000 0.0000 24.1901 17.7006 -22.4364 -31.1890 -16.6845 124.5659 0.0771 -8.2156 4.0172 -2.0794 9.0295 -25.8878 4.8555 -5.5482 15.0595 -2.7285 -6.7591 3.1764 -4.2442 -3.4238 -5.9120 18.1475 15.4012 -11.5756 -23.2295 23.5050 9.6507 -7.1443 10.5827 10.0777 -0.0000 0.0000 0.0000 -1.3484 -4.3096 7.2307 13.9975 -22.7312 -2.8272 -0.0000 -0.0000 4.1705 2.3458 -3.8928 -0.1593 -7.1250 0.0000 -0.0000 -18.1633 25.9811 8.7943 -0.0000 0.0000 0.0000 41.5400 -29.2806 25.8205 -10.6017 17.6752 -1.6530 0.0000 0.0000 25.7694 -0.6215 29.4241 -0.3053 7.1250 -0.0000 -0.0000 17.4438 -1.6973 17.7714
-4.2663 1.9747 -1.5565 -87.7132 61.3125 168.1150 0.0000 0.0000 0.0000 6.2509 30.1545 -31.8421 7.8251 15.9891 51.9303 0.4282 3.8015 11.6454 0.8490 5.8766 16.4267 0.0000 0.0000 0.0000 24.1366 17.7079 -22.4726 -31.1914 -16.6830 124.5741 0.0732 -8.1902 4.0925 -2.0834 9.0378 -25.9135 4.8580 -5.5094 15.0653 -2.7193 -6.7046 3.1919 -4.2484 -3.3955 -5.8913 18.3915 15.3760 -11.4260 -23.6555 23.5394 9.4626 -7.3290 10.6017 10.0969 -0.0000 0.0000 0.0000 -1.4233 -4.4737 6.9458 13.9833 -22.7108 -2.8217 -0.0000 -0.0000 4.4098 2.1805 -3.8627 -0.1470 -7.1250 0.0000 -0.0000 -18.2879 26.0081 8.8486 -0.0000 0.0000 0.0000 41.5818 -29.3414 25.7006 -10.5945 17.6640 -1.6508 0.0000 0.0000 25.7452 -0.7108 29.3615 -0.3485 7.1250 -0.0000 -0.0000 17.3940 -1.7505 17.6982
-4.2600 1.9732 -1.5584 -87.5805 61.3300 168.2200 0.0000 0.0000 0.0000 6.3181 30.1447 -31.8522 7.8324 15.9946 51.9566 0.4126 3.7783 11.4284 0.8704 5.9484 16.6347 0.0000 0.0000 0.0000 24.1623 17.6780 -22.5113 -31.1946 -16.6809 124.5853 0.0799 -8.3024 4.0306 -2.0192 8.9061 -25.5019 4.9503 -5.4846 15.0131 -2.6916 -6.6555 3.2381 -4.2881 -3.3693 -5.8145 18.1256 15.3541 -11.7321 -23.3454 23.4664 9.7277 -7.1822 10.5452 10.1418 -0.0000 0.0000 0.0000 -1.4691 -4.5997 6.7973 13.9803 -22.7065 -2.8205 -0.0000 -0.0000 4.5319 2.0433 -3.8312 -0.1366 -7.1250 0.0000 -0.0000 -18.3922 26.0366 8.8914 -0.0000 0.0000 0.0000 41.6337 -29.3797 25.5290 -10.5870 17.6524 -1.6485 0.0000 0.0000 25.7491 -0.7255 29.3412 -0.3555 7.1250 -0.0000 -0.0000 17.3859 -1.7687 17.6832
-4.2597 1.9740 -1.5587 -87.5450 61.3215 168.2250 0.0000 0.0000 0.0000 6.3325 30.1427 -31.8362 7.8350 15.9965 51.9662 0.4076 3.6537 11.3617 0.9167 6.1005 17.0762 0.0000 0.0000 0.0000 24.1590 17.6154 -22.4824 -31.1861 -16.6865 124.5556 0.0867 -8.4081 3.9624 -1.9398 8.7396 -24.9840 4.9635 -5.4624 14.9551 -2.6660 -6.6227 3.3063 -4.2836 -3.3487 -5.7045 17.8865 15.3343 -12.0791 -23.0964 23.4022 9.9872 -7.0560 10.4875 10.2088 -0.0000 0.0000 0.0000 -1.5535 -4.7106 6.4827 13.9938 -22.7258 -2.8257 -0.0000 -0.0000 4.7792 2.1589 -3.8235 -0.1440 -7.1250 0.0000 -0.0000 -18.3095 26.0451 8.8434 -0.0000 0.0000 0.0000 41.6160 -29.3962 25.6339 -10.5908 17.6584 -1.6497 0.0000 0.0000 25.5319 -0.7516 29.3385 -0.3683 7.1250 -0.0000 -0.0000 17.3711 -1.7694 17.6665
-4.2616 1.9745 -1.5588 -87.5398 61.3077 168.2120 0.0000 0.0000 0.0000 6.3240 30.1298 -31.8027 7.8272 15.9907 51.9379 0.4089 3.6219 11.3807 0.9190 6.1078 17.0975 0.0000 0.0000 0.0000 24.1473 17.5901 -22.4464 -31.1761 -16.6931 124.5208 0.0861 -8.4085 3.9793 -1.8939 8.6414 -24.6799 4.9728 -5.4410 14.9111 -2.6451 -6.5915 3.3634 -4.2798 -3.3295 -5.6144 17.7453 15.2850 -12.1587 -23.0266 23.3001 9.9551 -7.0305 10.4346 10.1611 -0.0000 0.0000 0.0000 -1.6394 -4.8313 6.1054 13.9977 -22.7314 -2.8272 -0.0000 -0.0000 5.0940 2.1622 -3.8865 -0.1466 -7.1250 0.0000 -0.0000 -18.2976 25.9852 8.8642 -0.0000 0.0000 0.0000 41.5908 -29.4066 25.7242 -10.5905 17.6579 -1.6496 0.0000 0.0000 25.3645 -0.7980 29.3358 -0.3910 7.1250 -0.0000 -0.0000 17.3451 -1.7685 17.6376
-4.2624 1.9733 -1.5592 -87.5583 61.3112 168.1960 0.0000 0.0000 0.0000 6.3075 30.1182 -31.7673 7.8145 15.9811 51.8918 0.4059 3.6833 11.3362 0.8894 6.0114 16.8174 0.0000 0.0000 0.0000 24.0910 17.5705 -22.4520 -31.1702 -16.6969 124.5003 0.0831 -8.3442 3.9905 -1.8923 8.6380 -24.6693 4.9624 -5.4154 14.8880 -2.6085 -6.5564 3.3847 -4.2460 -3.3097 -5.5694 17.7023 15.2350 -12.1439 -23.0983 23.2364 9.8833 -7.0653 10.4043 10.1269 -0.0000 0.0000 0.0000 -1.7386 -4.9341 5.8691 13.9780 -22.7033 -2.8196 -0.0000 -0.0000 5.2814 2.0613 -3.9769 -0.1430 -7.1250 0.0000 -0.0000 -18.3571 25.8984 8.9356 -0.0000 0.0000 0.0000 41.5565 -29.4252 25.6538 -10.5873 17.6529 -1.6486 0.0000 0.0000 25.3384 -0.8490 29.3545 -0.4162 7.1250 -0.0000 -0.0000 17.3164 -1.7469 17.6123
